IKResults
version=1
nRows=17
nColumns=34
inDegrees=yes

Units are S.I. units (second, meters, Newtons, ...)
If the header above contains a line with 'inDegrees', this indicates whether rotational values are in degrees (yes) or radians (no).

endheader
time	pelvis_tilt	pelvis_list	pelvis_rotation	pelvis_tx	pelvis_ty	pelvis_tz	hip_flexion_r	hip_adduction_r	hip_rotation_r	knee_angle_r	knee_angle_beta_r	ankle_angle_r	subtalar_angle_r	mtp_angle_r	hip_flexion_l	hip_adduction_l	hip_rotation_l	knee_angle_l	knee_angle_beta_l	ankle_angle_l	subtalar_angle_l	mtp_angle_l	lumbar_extension	lumbar_bending	lumbar_rotation	arm_flex_r	arm_add_r	arm_rot_r	elbow_flex_r	arm_flex_l	arm_add_l	arm_rot_l	elbow_flex_l
      3.60000000	     -2.08209427	    -40.07276716	     89.75558583	      1.20787046	      0.75668541	     -0.54003151	     24.28545901	     -7.96417546	     -1.77612093	     77.45763800	      1.35189081	    -17.82039517	    -17.31188399	      0.00000000	     20.19664923	     -8.49667920	     -3.03679989	     70.19828564	      1.22519121	    -13.00706745	     -1.47034552	      0.00000000	     39.27765764	     -5.79839683	     -4.16129606	    -16.88929174	    -74.33035145	    -87.29939324	    113.89865516	     89.24164305	   -102.11590470	     19.04583414	    120.75456394
      3.60500000	     -2.09507492	    -40.09075723	     89.72933710	      1.20803210	      0.75656751	     -0.54014335	     24.30532585	     -7.94138202	     -1.71789709	     77.47533880	      1.35219975	    -17.81031519	    -17.30083425	      0.00000000	     20.18556321	     -8.50802141	     -3.08342112	     70.17944688	      1.22486242	    -13.03550681	     -1.53851851	      0.00000000	     39.28740310	     -5.83513978	     -4.22735439	    -15.98074521	    -74.30454101	    -86.39577332	    113.85943443	     89.00640720	   -102.21485160	     18.84191408	    120.76685346
      3.61000000	     -2.08874413	    -40.11315532	     89.75873596	      1.20798284	      0.75651232	     -0.54031045	     24.31166695	     -7.93596484	     -1.72769162	     77.46574262	      1.35203227	    -18.06217159	    -17.63728316	      0.00000000	     20.19312627	     -8.49075791	     -3.05550055	     70.15561044	      1.22444639	    -13.10982559	     -1.62511035	      0.00000000	     39.25017981	     -5.84388606	     -4.15981425	    -16.70519449	    -74.21600600	    -87.14878085	    113.93627458	     89.25636985	   -102.12989147	     19.11689078	    120.80429714
      3.61500000	     -2.10011181	    -40.13351394	     89.76916909	      1.20813097	      0.75639241	     -0.54048494	     24.28740653	     -7.93401047	     -1.71405649	     77.43947575	      1.35157382	    -17.82816988	    -17.32716831	      0.00000000	     20.20405464	     -8.50068321	     -3.06901468	     70.18020568	      1.22487566	    -13.03135901	     -1.39942774	      0.00000000	     39.27444107	     -5.91340477	     -4.21292882	    -16.08267705	    -74.15793042	    -86.47536483	    113.92126022	     89.01684368	   -102.17267292	     18.88589752	    120.81286139
      3.62000000	     -2.10698144	    -40.15536831	     89.80208021	      1.20807763	      0.75633652	     -0.54072580	     24.27445353	     -7.96346597	     -1.76306455	     77.42197980	      1.35126846	    -17.91717193	    -17.47648104	      0.00000000	     20.21363262	     -8.48850131	     -3.01034723	     70.14553054	      1.22427046	    -13.06060878	     -1.35024651	      0.00000000	     39.24173888	     -5.94125095	     -4.12724047	    -16.90302104	    -74.05574080	    -87.33665429	    114.02443142	     89.25689669	   -102.07907742	     19.15878506	    120.81954191
      3.62500000	     -2.11756763	    -40.17624702	     89.74609628	      1.20822017	      0.75621635	     -0.54087707	     24.29012694	     -7.93883321	     -1.68829245	     77.44052665	      1.35159216	    -17.73688471	    -17.21082368	      0.00000000	     20.18709467	     -8.50623375	     -3.09091850	     70.11441385	      1.22372737	    -13.06040123	     -1.40326236	      0.00000000	     39.27145493	     -5.94391248	     -4.16223358	    -16.02941594	    -74.04687702	    -86.45141119	    113.95217476	     89.03242380	   -102.15666689	     18.99009319	    120.83466732
      3.63000000	     -2.10388285	    -40.19131129	     89.79953266	      1.20808449	      0.75617282	     -0.54105574	     24.26315344	     -7.97590936	     -1.77699815	     77.39529329	      1.35080269	    -18.02184754	    -17.56057325	      0.00000000	     20.19314739	     -8.49199803	     -3.05699391	     70.09889275	      1.22345648	    -13.10298875	     -1.49704728	      0.00000000	     39.22475121	     -5.95801275	     -4.11640822	    -16.69163747	    -73.96255951	    -87.17270383	    113.98836281	     89.28051902	   -102.08929072	     19.26765733	    120.90771334
      3.63500000	     -2.11638481	    -40.20950063	     89.90376421	      1.20802536	      0.75601262	     -0.54123537	     24.22478349	     -8.03122125	     -1.82004081	     77.45517271	      1.35184779	    -17.19203937	    -16.51383747	      0.00000000	     20.22005992	     -8.45033760	     -2.93387657	     70.10320722	      1.22353178	    -12.99329042	     -1.16581026	      0.00000000	     39.24185040	     -6.06943661	     -4.46128060	    -14.84549580	    -74.05264388	    -85.27207975	    113.87050226	     89.07891560	   -102.50193809	     19.16878414	    120.86399625
      3.64000000	     -2.12073880	    -40.22155301	     89.80170586	      1.20826909	      0.75603336	     -0.54129459	     24.26275408	     -7.96130854	     -1.77413337	     77.39986684	      1.35088252	    -18.10635455	    -17.80968170	      0.00000000	     20.18847180	     -8.48990888	     -3.04247358	     70.05711075	      1.22272725	    -13.16505618	     -1.44235466	      0.00000000	     39.16341069	     -6.01966041	     -4.10469408	    -16.73895922	    -73.80704803	    -87.20018992	    114.04519457	     89.27650174	   -102.10320338	     19.27486693	    120.87828436
      3.64500000	     -2.12387413	    -40.23541210	     89.92795569	      1.20810585	      0.75595861	     -0.54139710	     24.21015491	     -8.04393715	     -1.88794737	     77.40365847	      1.35094869	    -17.49735822	    -17.03898346	      0.00000000	     20.24220696	     -8.45166617	     -2.88277273	     70.09142604	      1.22332616	    -13.10301179	     -1.06744624	      0.00000000	     39.16100051	     -6.13239915	     -4.32584701	    -15.63085189	    -73.80274634	    -86.09227187	    113.97779063	     89.07334812	   -102.29834151	     19.18002264	    120.88823663
      3.65000000	     -2.12839663	    -40.25706101	     89.73193327	      1.20837120	      0.75587772	     -0.54150282	     24.29085935	     -7.94964223	     -1.72913180	     77.40944237	      1.35104964	    -18.12383120	    -17.78625313	      0.00000000	     20.17970550	     -8.51777381	     -3.12909656	     70.03744791	      1.22238407	    -13.18323430	     -1.53190530	      0.00000000	     39.12633914	     -6.00501269	     -4.04489916	    -16.49492004	    -73.71762109	    -87.00008923	    114.08863960	     89.30139068	   -102.16198798	     19.40750718	    120.90533579
      3.65500000	     -2.13284501	    -40.27021540	     89.77581640	      1.20836178	      0.75580525	     -0.54165617	     24.24979596	     -7.95970591	     -1.75327193	     77.36992567	      1.35035994	    -18.08469294	    -17.74065541	      0.00000000	     20.17922974	     -8.51072817	     -3.08330833	     70.02307515	      1.22213321	    -13.15150228	     -1.40859891	      0.00000000	     39.10486142	     -6.05395055	     -4.04629593	    -16.61337907	    -73.64219584	    -87.07029949	    114.11621681	     89.28965543	   -102.10690113	     19.44355267	    120.97146253
      3.66000000	     -2.15192609	    -40.28530344	     89.80531217	      1.20839854	      0.75572440	     -0.54173140	     24.24391585	     -7.98250263	     -1.77432090	     77.38264410	      1.35058192	    -17.89475410	    -17.53099464	      0.00000000	     20.21577789	     -8.49932088	     -3.02157444	     70.05619036	      1.22271118	    -13.12282965	     -1.19266480	      0.00000000	     39.09352691	     -6.13100437	     -4.11361242	    -16.10691399	    -73.58004409	    -86.53714187	    114.08822534	     89.05609591	   -102.12153735	     19.17776601	    120.93970967
      3.66500000	     -2.15636176	    -40.30636309	     89.81788393	      1.20840411	      0.75564851	     -0.54190841	     24.24079343	     -7.99688662	     -1.81445920	     77.35313840	      1.35006695	    -18.06546312	    -17.77733834	      0.00000000	     20.20288568	     -8.48569269	     -3.02909968	     70.00138155	      1.22175459	    -13.18966022	     -1.32617735	      0.00000000	     39.05263689	     -6.14334474	     -4.04203171	    -16.75738748	    -73.48561323	    -87.23760943	    114.16516544	     89.30076620	   -102.07363142	     19.45986813	    120.94555780
      3.67000000	     -2.15698469	    -40.31928901	     89.83589457	      1.20836437	      0.75556675	     -0.54203594	     24.23057786	     -8.00444216	     -1.82139509	     77.34631215	      1.34994781	    -17.98618086	    -17.64043311	      0.00000000	     20.19833898	     -8.48701008	     -3.00264812	     69.98799700	      1.22152098	    -13.13444503	     -1.20332182	      0.00000000	     39.02398814	     -6.17241542	     -4.02206412	    -16.90770149	    -73.41647673	    -87.36503558	    114.15877897	     89.29522211	   -102.02621122	     19.46890473	    120.99942936
      3.67500000	     -2.18304393	    -40.33345935	     89.75943485	      1.20851356	      0.75547438	     -0.54208522	     24.26673016	     -7.97985264	     -1.72920827	     77.37738091	      1.35049006	    -17.89538605	    -17.46048469	      0.00000000	     20.18463183	     -8.49770072	     -3.07599715	     69.97685033	      1.22132644	    -13.14202278	     -1.26019033	      0.00000000	     39.01829283	     -6.17674891	     -4.06410610	    -15.97549873	    -73.41346195	    -86.42199799	    114.12643605	     89.08432735	   -102.16544081	     19.31906790	    121.03345002
      3.68000000	     -2.18398397	    -40.35118798	     89.81529583	      1.20843464	      0.75539581	     -0.54223465	     24.22934945	     -8.01313384	     -1.80628390	     77.31413833	      1.34938627	    -17.99191096	    -17.62907524	      0.00000000	     20.19877583	     -8.47474898	     -2.98988567	     69.97792874	      1.22134526	    -13.14473670	     -1.23472103	      0.00000000	     38.96390667	     -6.20900611	     -4.03945570	    -16.63778034	    -73.33238521	    -87.07534966	    114.19363444	     89.31458841	   -102.14346340	     19.53380561	    121.05118419
